<svg width="32" height="32" viewBox="0 0 32 32" fill="#ffffff42" xmlns="http://www.w3.org/2000/svg">
<path d="M16 0C11.6533 0 11.1067 0 9.4 0.0933333C8.07381 0.121615 6.76197 0.374067 5.52 0.84C4.45418 1.24625 3.48627 1.8732 2.67974 2.67974C1.8732 3.48627 1.24625 4.45418 0.84 5.52C0.374067 6.76197 0.121615 8.07381 0.0933333 9.4C0 11.1067 0 11.6533 0 16C0 20.3467 0 20.8933 0.0933333 22.6667C0.12007 23.993 0.372571 25.3051 0.84 26.5467C1.24656 27.5935 1.86894 28.5429 2.66667 29.3333C3.46892 30.1451 4.43792 30.7729 5.50667 31.1733C6.74863 31.6393 8.06048 31.8917 9.38667 31.92C11.1067 32 11.6533 32 16 32C20.3467 32 20.8933 32 22.6 31.9067C23.9264 31.8799 25.2385 31.6274 26.48 31.16C27.5506 30.7618 28.5235 30.1389 29.3333 29.3333C30.1451 28.5311 30.7729 27.5621 31.1733 26.4933C31.6289 25.2674 31.8767 23.9741 31.9067 22.6667C32 20.8933 32 20.3467 32 16C32 11.6533 32 11.1067 31.9067 9.4C31.8799 8.07365 31.6274 6.76154 31.16 5.52C30.7538 4.45418 30.1268 3.48627 29.3203 2.67974C28.5137 1.8732 27.5458 1.24625 26.48 0.84C25.2595 0.379935 23.9706 0.127554 22.6667 0.0933333C20.8933 0 20.3467 0 16 0ZM16 2.88C20.2667 2.88 20.7867 2.88 22.4667 2.97333C23.4826 2.98721 24.4886 3.17667 25.44 3.53333C26.1363 3.78229 26.766 4.18835 27.28 4.72C27.8117 5.23403 28.2177 5.86365 28.4667 6.56C28.8284 7.51 29.018 8.51683 29.0267 9.53333C29.0933 11.2267 29.12 11.7333 29.12 16C29.12 20.2667 29.12 20.7867 29.0133 22.4667C28.9995 23.4826 28.81 24.4886 28.4533 25.44C28.1947 26.1347 27.7848 26.7632 27.2533 27.28C26.7393 27.8117 26.1097 28.2177 25.4133 28.4667C24.4637 28.8298 23.4566 29.0195 22.44 29.0267C20.7467 29.0933 20.24 29.12 15.96 29.12C11.68 29.12 11.1733 29.12 9.48 29.0133C8.46402 28.9995 7.45809 28.81 6.50667 28.4533C5.80882 28.2009 5.17899 27.7902 4.66667 27.2533C4.13093 26.7401 3.72035 26.1105 3.46667 25.4133C3.11 24.4619 2.92054 23.456 2.90667 22.44C2.84 20.76 2.82667 20.24 2.82667 15.9867C2.82667 11.7333 2.82667 11.2 2.90667 9.49333C2.92054 8.47735 3.11 7.47142 3.46667 6.52C3.71729 5.82127 4.12829 5.19106 4.66667 4.68C5.17773 4.14163 5.80794 3.73062 6.50667 3.48C7.4552 3.12958 8.45568 2.9403 9.46667 2.92C11.16 2.92 11.6667 2.84 15.9333 2.84L16 2.88ZM16 7.78667C14.3756 7.78667 12.7876 8.26837 11.4369 9.17086C10.0862 10.0734 9.03352 11.3561 8.41187 12.8569C7.79022 14.3577 7.62757 16.0091 7.94448 17.6023C8.2614 19.1956 9.04364 20.659 10.1923 21.8077C11.341 22.9564 12.8044 23.7386 14.3977 24.0555C15.9909 24.3724 17.6423 24.2098 19.1431 23.5881C20.6439 22.9665 21.9266 21.9138 22.8291 20.5631C23.7316 19.2124 24.2133 17.6244 24.2133 16C24.2133 13.8217 23.348 11.7326 21.8077 10.1923C20.2674 8.652 18.1783 7.78667 16 7.78667ZM16 21.3333C14.9452 21.3333 13.914 21.0205 13.037 20.4345C12.1599 19.8485 11.4763 19.0155 11.0726 18.041C10.669 17.0664 10.5634 15.9941 10.7691 14.9595C10.9749 13.925 11.4829 12.9746 12.2288 12.2288C12.9746 11.4829 13.925 10.9749 14.9595 10.7691C15.9941 10.5634 17.0664 10.669 18.041 11.0726C19.0155 11.4763 19.8485 12.1599 20.4345 13.037C21.0205 13.914 21.3333 14.9452 21.3333 16C21.3333 17.4145 20.7714 18.771 19.7712 19.7712C18.771 20.7714 17.4145 21.3333 16 21.3333ZM26.4667 7.46667C26.4667 7.84641 26.3541 8.21762 26.1431 8.53336C25.9321 8.8491 25.6323 9.0952 25.2814 9.24052C24.9306 9.38584 24.5445 9.42386 24.1721 9.34978C23.7997 9.27569 23.4575 9.09283 23.189 8.82431C22.9205 8.55579 22.7376 8.21368 22.6636 7.84124C22.5895 7.4688 22.6275 7.08275 22.7728 6.73191C22.9181 6.38108 23.1642 6.08122 23.48 5.87024C23.7957 5.65927 24.1669 5.54667 24.5467 5.54667C25.0548 5.55016 25.5411 5.75357 25.9005 6.11288C26.2598 6.4722 26.4632 6.95853 26.4667 7.46667Z"/>
</svg>
