<svg width="32" height="32" viewBox="0 0 32 32" fill="#ffffff42" xmlns="http://www.w3.org/2000/svg">
<path d="M32 16.0939C31.9979 13.019 31.1201 10.0091 29.4706 7.42036C27.821 4.8316 25.4687 2.77234 22.692 1.48628C19.9153 0.200222 16.8304 -0.258806 13.8024 0.163518C10.7745 0.585842 7.93018 1.87184 5.60612 3.86933C3.28205 5.86682 1.57551 8.49218 0.68845 11.4347C-0.198612 14.3773 -0.229067 17.5139 0.60069 20.4733C1.43045 23.4327 3.08568 26.0911 5.37052 28.1339C7.65535 30.1767 10.4741 31.5183 13.4933 32V20.7477H9.49333V16.0939H13.4933V12.5532C13.4933 8.52978 15.8933 6.29005 19.5467 6.29005C20.7441 6.30752 21.9385 6.41511 23.12 6.61192V10.6354H21.1067C20.7591 10.5812 20.4039 10.6072 20.0679 10.7114C19.7318 10.8156 19.4237 10.9953 19.1668 11.2369C18.9099 11.4785 18.711 11.7756 18.5851 12.1059C18.4592 12.4362 18.4096 12.791 18.44 13.1434V16.161H22.9333L22.2267 20.8148H18.4933V32.0671C22.2709 31.4677 25.7102 29.5271 28.1879 26.5968C30.6657 23.6666 32.018 19.9406 32 16.0939Z"/>
</svg>
